<svg width="295" height="293" viewBox="0 0 295 293" fill="none" xmlns="http://www.w3.org/2000/svg">
<mask id="path-1-inside-1_7_120" fill="#e9e9e9">
<path d="M147.5 0C118.327 -3.45523e-07 89.8096 8.59207 65.5534 24.6897C41.2971 40.7873 22.3917 63.6675 11.2278 90.4369C0.0638433 117.206 -2.85715 146.663 2.83417 175.081C8.52549 203.499 22.5735 229.603 43.2017 250.091C63.83 270.58 90.112 284.532 118.724 290.185C147.336 295.838 176.994 292.937 203.946 281.848C230.898 270.76 253.934 251.983 270.142 227.891C286.349 203.799 295 175.475 295 146.5H262.929C262.929 169.175 256.159 191.341 243.475 210.194C230.792 229.047 212.764 243.742 191.673 252.419C170.581 261.097 147.372 263.367 124.981 258.943C102.59 254.52 82.0226 243.601 65.8796 227.567C49.7366 211.534 38.7431 191.106 34.2892 168.866C29.8354 146.627 32.1212 123.576 40.8578 102.627C49.5943 81.678 64.3891 63.7727 83.3712 51.1752C102.353 38.5777 124.67 31.8539 147.5 31.8539V0Z"/>
</mask>
<path d="M147.5 0C118.327 -3.45523e-07 89.8096 8.59207 65.5534 24.6897C41.2971 40.7873 22.3917 63.6675 11.2278 90.4369C0.0638433 117.206 -2.85715 146.663 2.83417 175.081C8.52549 203.499 22.5735 229.603 43.2017 250.091C63.83 270.58 90.112 284.532 118.724 290.185C147.336 295.838 176.994 292.937 203.946 281.848C230.898 270.76 253.934 251.983 270.142 227.891C286.349 203.799 295 175.475 295 146.5H262.929C262.929 169.175 256.159 191.341 243.475 210.194C230.792 229.047 212.764 243.742 191.673 252.419C170.581 261.097 147.372 263.367 124.981 258.943C102.59 254.52 82.0226 243.601 65.8796 227.567C49.7366 211.534 38.7431 191.106 34.2892 168.866C29.8354 146.627 32.1212 123.576 40.8578 102.627C49.5943 81.678 64.3891 63.7727 83.3712 51.1752C102.353 38.5777 124.67 31.8539 147.5 31.8539V0Z" fill="#E9E9E9" stroke="#E9E9E9" stroke-width="10" mask="url(#path-1-inside-1_7_120)"/>
</svg>
