<?xml version="1.0" encoding="UTF-8"?>
<svg xmlns="http://www.w3.org/2000/svg" xmlns:xlink="http://www.w3.org/1999/xlink" viewBox="0 0 50 50" width="50px" height="50px">
<g id="surface136957115">
<path style=" stroke:none;fill-rule:nonzero;fill:rgb(20.392157%,20.392157%,20.392157%);fill-opacity:1;" d="M 25.769531 5.023438 C 25.578125 5.007812 25.382812 5.011719 25.195312 5.03125 C 24.429688 5.113281 23.691406 5.488281 23.179688 6.128906 C 22.148438 7.410156 22.355469 9.316406 23.636719 10.347656 L 26.9375 13 L 9.960938 13 C 8.316406 13 6.960938 14.355469 6.960938 16 C 6.960938 17.644531 8.316406 19 9.960938 19 L 17.398438 19 L 3.15625 30.511719 C 1.828125 31.582031 1.617188 33.5625 2.691406 34.890625 C 3.765625 36.21875 5.742188 36.429688 7.074219 35.355469 L 14.070312 29.699219 C 14.628906 37.71875 22 44 30.960938 44 C 40.277344 44 47.960938 37.226562 47.960938 28.75 C 47.960938 23.363281 44.828125 18.652344 40.1875 15.957031 L 27.398438 5.671875 C 27.394531 5.671875 27.394531 5.671875 27.394531 5.671875 C 26.914062 5.285156 26.347656 5.070312 25.769531 5.023438 Z M 25.40625 7.007812 C 25.660156 6.980469 25.921875 7.050781 26.144531 7.230469 L 38.980469 17.550781 C 39.019531 17.582031 39.0625 17.613281 39.109375 17.640625 C 43.261719 20.019531 45.960938 24.109375 45.960938 28.75 C 45.960938 36.011719 39.316406 42 30.960938 42 C 22.605469 42 15.960938 36.011719 15.960938 28.75 C 15.960938 28.429688 15.988281 28.09375 16.019531 27.730469 C 16.054688 27.328125 15.847656 26.945312 15.492188 26.757812 C 15.140625 26.570312 14.707031 26.609375 14.394531 26.863281 L 5.816406 33.800781 C 5.324219 34.191406 4.640625 34.121094 4.25 33.632812 C 3.851562 33.144531 3.925781 32.460938 4.414062 32.066406 L 20.855469 18.777344 C 21.183594 18.511719 21.308594 18.066406 21.167969 17.667969 C 21.027344 17.265625 20.648438 17 20.226562 17 L 9.960938 17 C 9.394531 17 8.960938 16.566406 8.960938 16 C 8.960938 15.433594 9.394531 15 9.960938 15 L 29.777344 15 C 30.203125 15 30.578125 14.730469 30.71875 14.332031 C 30.863281 13.933594 30.734375 13.488281 30.40625 13.21875 L 24.890625 8.785156 C 24.449219 8.433594 24.382812 7.820312 24.738281 7.378906 C 24.914062 7.160156 25.152344 7.035156 25.40625 7.007812 Z M 30.960938 18 C 24.980469 18 19.960938 22.171875 19.960938 27.5 C 19.960938 32.828125 24.980469 37 30.960938 37 C 36.941406 37 41.960938 32.828125 41.960938 27.5 C 41.960938 22.171875 36.941406 18 30.960938 18 Z M 30.960938 20 C 36.023438 20 39.960938 23.441406 39.960938 27.5 C 39.960938 31.558594 36.023438 35 30.960938 35 C 25.898438 35 21.960938 31.558594 21.960938 27.5 C 21.960938 23.441406 25.898438 20 30.960938 20 Z M 30.960938 22 C 27.648438 22 24.960938 24.238281 24.960938 27 C 24.960938 29.761719 27.648438 32 30.960938 32 C 34.273438 32 36.960938 29.761719 36.960938 27 C 36.960938 24.238281 34.273438 22 30.960938 22 Z M 30.960938 24 C 33.128906 24 34.960938 25.375 34.960938 27 C 34.960938 28.625 33.128906 30 30.960938 30 C 28.792969 30 26.960938 28.625 26.960938 27 C 26.960938 25.375 28.792969 24 30.960938 24 Z M 30.960938 24 "/>
</g>
</svg>
