<svg width="64" height="64" viewBox="0 0 64 64" fill="none" xmlns="http://www.w3.org/2000/svg">
<g clip-path="url(#clip0_7_439)">
<path d="M55.0833 35.6147C52.8542 35.6251 50.9167 36.1668 49.2917 36.9584C48.6979 35.7813 48.0938 34.7397 47.9896 33.9584C47.875 33.0522 47.7396 32.5105 47.8854 31.4376C48.0208 30.3647 48.6458 28.8334 48.6354 28.7188C48.6354 28.6043 48.5 28.0522 47.2083 28.0522C45.9167 28.0418 44.8229 28.2918 44.6875 28.6355C44.5625 28.9793 44.3125 29.7397 44.1562 30.5418C43.9271 31.7084 41.5833 35.8855 40.25 38.0626C39.8125 37.2084 39.4375 36.4584 39.3646 35.8647C39.25 34.9688 39.1042 34.4272 39.25 33.3438C39.3958 32.2709 40.0208 30.7397 40.0104 30.6251C40 30.5105 39.8646 29.9688 38.5833 29.9584C37.2917 29.948 36.1875 30.2084 36.0521 30.5418C35.9271 30.8855 35.7917 31.6876 35.5208 32.4584C35.2604 33.2293 32.1354 40.1772 31.3229 41.9793C30.9062 42.8959 30.5417 43.6355 30.2812 44.1459V44.1355C30.2812 44.1355 30.2708 44.1772 30.2396 44.2293C30.0208 44.6563 29.8958 44.8959 29.8958 44.8959C29.8958 44.8959 29.8958 44.8959 29.8958 44.9063C29.7188 45.2188 29.5312 45.5105 29.4375 45.5105C29.375 45.5105 29.25 44.6772 29.4688 43.5209C29.9375 41.1043 31.0521 37.3438 31.0417 37.2188C31.0313 37.1563 31.25 36.5001 30.3125 36.1563C29.3958 35.823 29.0729 36.3751 28.9896 36.3751C28.9167 36.3855 28.8542 36.573 28.8542 36.573C28.8542 36.573 29.8646 32.3438 26.9167 32.3438C25.0729 32.3438 22.5208 34.3647 21.2604 36.1876C20.4688 36.6147 18.7708 37.5418 16.9688 38.5313C16.2812 38.9168 15.5729 39.3022 14.9063 39.6772C14.8542 39.6251 14.8125 39.573 14.7604 39.5209C11.1875 35.7084 4.58333 33.0105 4.86458 27.8855C4.95833 26.0209 5.61458 21.1147 17.5521 15.1668C27.3438 10.2918 35.1771 11.6355 36.5208 14.6043C38.4583 18.8543 32.3438 26.7501 22.1771 27.8855C18.3021 28.323 16.2708 26.823 15.7604 26.2605C15.2292 25.6772 15.1458 25.6459 14.9479 25.7605C14.625 25.9376 14.8333 26.4584 14.9479 26.7709C15.25 27.5626 16.5 28.9584 18.625 29.6563C20.4896 30.2709 25.0312 30.6043 30.5312 28.4793C36.6875 26.0938 41.5 19.4688 40.0833 13.9376C38.6458 8.30217 29.3125 6.44801 20.4688 9.59384C15.2187 11.448 9.52083 14.3855 5.42708 18.2084C0.562501 22.7605 -0.21875 26.7293 0.104167 28.3855C1.23958 34.2709 9.35417 38.0938 12.5937 40.9376C12.4375 41.0313 12.2917 41.1043 12.1458 41.1876C10.5208 41.9897 4.34375 45.2293 2.79167 48.6459C1.04167 52.5209 3.07292 55.3022 4.41667 55.6772C8.58333 56.8438 12.8646 54.7501 15.1667 51.323C17.4688 47.8959 17.1875 43.4272 16.125 41.3855C16.1146 41.3647 16.1042 41.3438 16.0833 41.3126C16.5104 41.0626 16.9375 40.8126 17.3646 40.5626C18.1875 40.073 19.0104 39.6251 19.7083 39.2397C19.3125 40.323 19.0208 41.6147 18.875 43.4897C18.6979 45.6876 19.6042 48.5313 20.7813 49.6563C21.3021 50.1459 21.9271 50.1563 22.3229 50.1563C23.6979 50.1563 24.3229 49.0209 25.0208 47.6668C25.8646 46.0105 26.6146 44.073 26.6146 44.073C26.6146 44.073 25.6771 49.2918 28.2396 49.2918C29.1771 49.2918 30.1146 48.073 30.5312 47.4584C30.5312 47.4688 30.5417 47.4688 30.5417 47.4688C30.5417 47.4688 30.5625 47.4272 30.6146 47.3543C30.7083 47.198 30.7604 47.1043 30.7604 47.1043C30.7604 47.1043 30.7604 47.0938 30.7708 47.0834C31.1458 46.4272 31.9792 44.9376 33.2292 42.4793C34.8438 39.3126 36.3958 35.3334 36.3958 35.3334C36.3958 35.3334 36.5417 36.3022 37.0104 37.9168C37.2917 38.8543 37.875 39.9063 38.3438 40.9063C37.9688 41.4272 37.7396 41.7293 37.7396 41.7293C37.7396 41.7293 37.7396 41.7293 37.7396 41.7397C37.4479 42.1355 37.1042 42.573 36.7604 42.9897C35.4792 44.5105 33.9583 46.2397 33.7604 46.7397C33.5208 47.3334 33.5729 47.7605 34.0417 48.1147C34.375 48.3751 34.9792 48.4063 35.6146 48.3647C36.7604 48.2918 37.5625 48.0105 37.9583 47.8334C38.5833 47.6147 39.3021 47.2709 39.9792 46.7709C41.2396 45.8543 41.9896 44.5313 41.9167 42.7918C41.875 41.8334 41.5729 40.8751 41.1875 39.9793C41.3021 39.823 41.4062 39.6563 41.5208 39.4897C43.5 36.6043 45.0312 33.4272 45.0312 33.4272C45.0312 33.4272 45.1771 34.4063 45.6458 36.0105C45.8854 36.823 46.3542 37.7084 46.7812 38.5834C44.9271 40.0834 43.7708 41.8438 43.375 42.9897C42.6354 45.1147 43.2188 46.073 44.3021 46.2918C44.7917 46.3959 45.4896 46.1668 46.0104 45.948C46.6563 45.7293 47.4375 45.3751 48.1667 44.8438C49.4167 43.9168 50.625 42.6355 50.5521 40.8855C50.5208 40.0938 50.3021 39.3022 50.0104 38.5522C51.5833 37.8959 53.6146 37.5313 56.2083 37.8334C61.7708 38.4793 62.8646 41.9584 62.6562 43.4063C62.4479 44.8647 61.2813 45.6563 60.8854 45.9063C60.5 46.1459 60.375 46.2293 60.4062 46.4063C60.4583 46.6668 60.6354 46.6563 60.9688 46.6043C61.4271 46.5209 63.8958 45.4168 64 42.7293C64.1354 39.323 60.8646 35.5834 55.0833 35.6147ZM12.2083 50.0626C10.3646 52.073 7.79167 52.8334 6.6875 52.198C5.5 51.5105 5.96875 48.5418 8.22917 46.4168C9.60417 45.1147 11.3854 43.9168 12.5729 43.1772C12.8333 43.0209 13.2292 42.7813 13.7083 42.4897C13.7917 42.448 13.8333 42.4272 13.8333 42.4272V42.4168C13.9271 42.3647 14.0208 42.3126 14.125 42.2501C14.9375 45.2813 14.1458 47.9584 12.2083 50.0626ZM25.6354 40.9376C24.9896 42.5105 23.6458 46.5105 22.8333 46.2918C22.125 46.1043 21.6979 43.0626 22.6875 40.073C23.1875 38.5626 24.25 36.7605 24.875 36.0626C25.875 34.9376 26.9896 34.573 27.2604 35.0313C27.6042 35.6147 26.0313 39.9584 25.6354 40.9376ZM36.7188 46.2397C36.4479 46.3751 36.1979 46.4688 36.0833 46.3959C36 46.3438 36.1979 46.1563 36.1979 46.1563C36.1979 46.1563 37.5833 44.6668 38.125 43.9897C38.4479 43.5938 38.8125 43.1251 39.2188 42.6043C39.2188 42.6563 39.2188 42.7084 39.2188 42.7501C39.2188 44.5418 37.4896 45.7501 36.7188 46.2397ZM45.2604 44.2813C45.0625 44.1459 45.0938 43.6772 45.7604 42.2188C46.0208 41.6459 46.625 40.6876 47.6562 39.7709C47.7812 40.1459 47.8542 40.5105 47.8542 40.8438C47.8438 43.0938 46.2396 43.9376 45.2604 44.2813Z" fill="#343434"/>
</g>
<defs>
<clipPath id="clip0_7_439">
<rect width="64" height="64" fill="white"/>
</clipPath>
</defs>
</svg>
